inDegrees=no
num_controls=7
num_derivatives=13
num_iterations=110
num_multipliers=7
num_parameters=0
num_slacks=7
num_states=26
objective=0.546348
objective_accelerations=0.041384
objective_balance=0.003631
objective_effort=0.039855
objective_height=0.451991
objective_ligament=0.009486
solver_duration=1397.995465
status=Solve_Succeeded
success=true
DataType=double
version=3
OpenSimVersion=4.5
endheader
time	/jointset/ground_pelvis/pelvis_tilt/value	/jointset/ground_pelvis/pelvis_tx/value	/jointset/ground_pelvis/pelvis_ty/value	/jointset/hip_r/hip_flexion_r/value	/jointset/hip_r/hip_adduction_r/value	/jointset/hip_r/hip_rotation_r/value	/jointset/back/lumbar_extension/value	/jointset/patellofemoral_r/patellar_flexion_r/value	/jointset/knee_r/knee_flexion_r/value	/jointset/knee_r/knee_adduction_r/value	/jointset/knee_r/knee_rotation_r/value	/jointset/ankle_r/ankle_angle_r/value	/jointset/subtalar_r/subtalar_angle_r/value	/jointset/ground_pelvis/pelvis_tilt/speed	/jointset/ground_pelvis/pelvis_tx/speed	/jointset/ground_pelvis/pelvis_ty/speed	/jointset/hip_r/hip_flexion_r/speed	/jointset/hip_r/hip_adduction_r/speed	/jointset/hip_r/hip_rotation_r/speed	/jointset/back/lumbar_extension/speed	/jointset/patellofemoral_r/patellar_flexion_r/speed	/jointset/knee_r/knee_flexion_r/speed	/jointset/knee_r/knee_adduction_r/speed	/jointset/knee_r/knee_rotation_r/speed	/jointset/ankle_r/ankle_angle_r/speed	/jointset/subtalar_r/subtalar_angle_r/speed	/forceset/tau_hip_flexion_r	/forceset/tau_hip_adduction_r	/forceset/tau_hip_rotation_r	/forceset/tau_knee_flexion_r	/forceset/tau_ankle_angle_r	/forceset/tau_subtalar_angle_r	/forceset/tau_lumbar_extension	lambda_cid13_p0	lambda_cid14_p0	lambda_cid14_p1	lambda_cid14_p2	lambda_cid14_p3	lambda_cid14_p4	lambda_cid14_p5	/jointset/ground_pelvis/pelvis_tilt/accel	/jointset/ground_pelvis/pelvis_tx/accel	/jointset/ground_pelvis/pelvis_ty/accel	/jointset/hip_r/hip_flexion_r/accel	/jointset/hip_r/hip_adduction_r/accel	/jointset/hip_r/hip_rotation_r/accel	/jointset/back/lumbar_extension/accel	/jointset/patellofemoral_r/patellar_flexion_r/accel	/jointset/knee_r/knee_flexion_r/accel	/jointset/knee_r/knee_adduction_r/accel	/jointset/knee_r/knee_rotation_r/accel	/jointset/ankle_r/ankle_angle_r/accel	/jointset/subtalar_r/subtalar_angle_r/accel	gamma_cid13_p0	gamma_cid14_p0	gamma_cid14_p1	gamma_cid14_p2	gamma_cid14_p3	gamma_cid14_p4	gamma_cid14_p5
1	-0.3731749455582636	-0.03462578982104701	0.7094358200986626	1.421306387090378	-0.2312975395415109	-0.06329370312580707	-0.4363210293185394	1.163557336650576	1.163557336650567	-0.02864196209860091	0.1745256477116591	0.3042572311152748	0.06596147400757073	-0.002220859808227229	0.00263954572744991	0.01292684804138266	-0.0341152295523725	0.001085875938841289	-0.008497437260305801	-0.0004294899612536451	-0.04538133393027863	-0.04538133393027294	0.002510175359313243	1.859819467314366e-05	-0.01053993825622751	-0.001556774272953116	-0.321956570689772	0.01552811700079273	0.01228149292727516	-0.3990219971367499	0.0418334123869324	2.993639370298988e-05	0.3199136945604226	-2.877168694713105	-34.96512071902136	-5.501293123374097	0.6427198252306174	14.76218227860338	-782.0934818004181	52.49749181221821	1.623906885663308	0.1786481907034414	1.415944695355479	-5.072063636923366	0.07310462176721756	-0.7155924179020016	-0.02863950050419226	-4.312338449301364	-4.312338449301309	0.3708190153483584	0.008129822766628846	-1.020601976969651	-0.1979856633575466	6.679855291953349e-10	-1.011934042982235e-09	6.591475346402433e-09	6.317838213621672e-09	3.278664759283293e-09	-4.402840283401961e-09	5.578027111072995e-09
1.01	-0.3731165695660322	-0.03459041748195233	0.7096358052176724	1.420712256240737	-0.2312829599206999	-0.06341388188508455	-0.4363257102374611	1.162887944314552	1.162887944314555	-0.02859792291092021	0.1745258497859513	0.30410082860666	0.06593609788083488	0.01390630193545879	0.0044432959708673	0.02707530694036373	-0.08474293013686131	0.001831023258719426	-0.01553676152001006	-0.0004825552437085677	-0.08851629949265889	-0.08851629949264474	0.006303615638981305	1.883750827460623e-05	-0.02073834976680173	-0.003516241391982579	-0.3222219997537822	0.01561981055361297	0.01229168327183879	-0.3988360588671566	0.04183500051885574	-9.64336380797191e-06	0.3202183162540339	-2.903189459810575	-34.97497542266735	-5.52018791032661	0.645709133523472	14.67077137106758	-782.3118265101717	52.44988964159721	1.608657906173203	0.1824953326960363	1.415064562391924	-5.062921392698058	0.07536848474761017	-0.6978696560033683	0.009980744801504435	-4.316950765965411	-4.316950765964257	0.3845013345775034	-0.004473282797110708	-1.019129414689909	-0.1945923201607399	1.113436558825954e-09	-1.061340263067167e-09	1.299760749255712e-08	1.13714161286607e-08	4.040571200329368e-09	-7.972633899621183e-09	1.065812737579377e-08
1.02	-0.372896614538873	-0.03453675626211648	0.7099774285407167	1.419610888760553	-0.2312608990871603	-0.063604407332159	-0.436330197651798	1.16178662729165	1.161786627291671	-0.02851577036038376	0.1745259653996898	0.3038425082476218	0.06589119406611166	0.03009494717722313	0.006297321875682776	0.04125448884825059	-0.1355625556608074	0.002582118484577765	-0.02256677481966459	-0.0003907890494549088	-0.1317662713054014	-0.1317662713053819	0.01013284793070786	1.306083715484866e-06	-0.03092350834092012	-0.005462311870415753	-0.3224874288177962	0.01571150410643231	0.01230187361641874	-0.3986501205975623	0.04183658865077958	-4.922312132030631e-05	0.3205229379476411	-2.946256141761032	-34.99401947976692	-5.537592725966353	0.6449210951094501	14.59551331890041	-782.673904865646	52.41833007190551	1.636203585278982	0.1887033229830497	1.422089297136635	-5.110448624814829	0.07429420296325526	-0.7137302258920407	0.0003267948376657353	-4.335339699373812	-4.335339699374385	0.3779774177600769	0.004575675134509286	-1.017951389678498	-0.1953063352382976	1.408053810592752e-09	-1.092220885743279e-09	1.974748062825468e-08	1.653547848270926e-08	4.685305737035781e-09	-1.05076140282084e-08	1.564167981599543e-08
1.03	-0.3725147781837481	-0.03446420065026042	0.710460940517444	1.418000624100276	-0.231231319835219	-0.06386514690191214	-0.4363320606107796	1.160252288818236	1.16025228881832	-0.0283950779090638	0.1745258368097558	0.3034825073797384	0.06582689867430677	0.04625151059548745	0.008232592190139052	0.05544744315512901	-0.1864970476353623	0.003332530816714396	-0.02957571633601833	0.0001407672687985149	-0.1751155573948339	-0.1751155573948257	0.01401841941245389	-2.810869557653812e-05	-0.04106391036848846	-0.007394253783990484	-0.3230743446393891	0.01582694905378224	0.01231911930126462	-0.3981445173667885	0.0417610849537636	-6.859778466814323e-05	0.3212392426392731	-3.006757226664468	-35.03348661028901	-5.545036932065495	0.63710636663297	14.3970600438064	-783.0926640980045	52.3740853579109	1.602261643486774	0.1987587095096921	1.417826374436163	-5.085949567876674	0.07523934056249694	-0.6936632631281937	0.097955555770719	-4.336843508312542	-4.33684350831381	0.3957672499469559	-0.006857746244236129	-1.010172696068908	-0.1917543382501642	1.701131942177266e-09	-1.122912471711138e-09	2.650086132507002e-08	2.17006682289926e-08	5.328844642065259e-09	-1.303203483549323e-08	2.062424707431423e-08
1.04	-0.3719720004097631	-0.03437172837049328	0.7110863676126348	1.415880814503432	-0.2311942715415116	-0.06419581331655352	-0.4363249309056986	1.158284033395009	1.158284033395162	-0.02823514569561557	0.1745253825336741	0.3030214848742249	0.06574336061959947	0.06228323094921639	0.01028065545789958	0.069637512540918	-0.2374715429739526	0.004075926837796798	-0.03655214379721967	0.001407743805113012	-0.2185496612676497	-0.218549661267647	0.01798080035680302	-6.383114619572335e-05	-0.0511278358669734	-0.009310844450889274	-0.3236612604609903	0.01594239400113046	0.01233636498613569	-0.3976389141360135	0.04168558125674841	-8.797244801858542e-05	0.3219555473308969	-3.085224643255218	-35.08220652036486	-5.550907731255748	0.6253930000825915	14.21351616152784	-783.6571384553757	52.34633399197152	1.611234972371917	0.2112619136438894	1.421512312918751	-5.118449297621925	0.07289094075240594	-0.7072274148615488	0.1474108384498624	-4.352303256050461	-4.352303256049901	0.3933393102807142	0.003314140869076121	-1.002656083861833	-0.1922360859031194	1.948347283362778e-09	-5.138566846206888e-10	3.31870572911354e-08	2.717184884749777e-08	4.596336064853299e-09	-1.465786260842253e-08	2.57429078630455e-08
1.05	-0.3712698139684031	-0.03425815786802629	0.7118535834022904	1.413251440695096	-0.2311498505914177	-0.06459605017744043	-0.4363007966693574	1.155881166212912	1.15588116621362	-0.0280351627846626	0.1745245776851806	0.3024602601489422	0.06564071456530894	0.07810302297408396	0.01245773471715694	0.08379523077683593	-0.2883701012328369	0.004804912601284629	-0.04348632673497967	0.003610165788456307	-0.2620226322535514	-0.2620226322535466	0.0220324860104752	-9.539974440870875e-05	-0.06109874310162279	-0.0112170295342005	-0.3242217885185371	0.016041283442384	0.0123601752937123	-0.3968289664394857	0.04162104349847454	-9.706507795574878e-05	0.3227420155164861	-3.182311748269038	-35.10888213647718	-5.544132544238725	0.6067282804154215	13.94198325470783	-783.9834275257444	52.30767674661251	1.559697321919825	0.2245751406176367	1.411336119655129	-5.070590678321929	0.07240687527674845	-0.685179257004762	0.2853172267813928	-4.344623026428047	-4.344623026428111	0.4135943009293004	-0.006123999487186428	-0.9915548291805706	-0.1895988790821118	2.194129412348322e-09	1.151912078778287e-10	3.987115373436485e-08	3.265259168075988e-08	3.820826003821303e-09	-1.625560934902822e-08	3.086582157460216e-08
1.06	-0.3704109604059196	-0.03412208773125655	0.7127620632824507	1.41011407498651	-0.2310982388874629	-0.06506536197246013	-0.4362489063434684	1.153043603519642	1.153043603520908	-0.02779416079557154	0.1745235108228419	0.3017998769941303	0.06551904882827787	0.09361665517397814	0.01478058231844837	0.09789033064182946	-0.3390699230237318	0.005514077609964382	-0.05036713062360278	0.006958961711993317	-0.3054887635021745	-0.3054887635021715	0.02618461598489993	-0.0001162339154497461	-0.07095952177283572	-0.01311478099899115	-0.3247823165760911	0.01614017288363525	0.01238398560131514	-0.3960190187429568	0.04155650574020097	-0.0001061577078965049	0.323528483702068	-3.298792996383968	-35.14480696389634	-5.535636413876261	0.5839735972648564	13.68319344728707	-784.4569228040494	52.28617359697225	1.550003007377255	0.2404155820506932	1.408988638733874	-5.078702004024076	0.06892678979078702	-0.6965516050341614	0.3766856264885726	-4.350935308594736	-4.350935308594959	0.4134281744312375	0.005461026303467169	-0.9806303711745571	-0.1905493621990155	2.673973879206312e-09	1.118973315552059e-09	4.483800716631432e-08	3.85043730062531e-08	2.750935795239336e-09	-1.845598417320153e-08	3.535370739670208e-08
1.07	-0.3693983614770555	-0.03396206375595741	0.7138111427368974	1.406470652577242	-0.2310396473418633	-0.06560318079081852	-0.4361580965840605	1.149771460450643	1.14977146045161	-0.02751108342133552	0.1745222990524443	0.301041388690324	0.06537841631108081	0.1088633512927747	0.01724822686045998	0.1119109718360543	-0.3895838067991885	0.006200958586408236	-0.05718330200827682	0.01136788244541198	-0.3489339864898615	-0.3489339864898472	0.03045150551334434	-0.0001261938672420214	-0.08072424027064877	-0.01501153717767855	-0.3248806293105799	0.01618689749786463	0.0124202665240368	-0.3950979015564544	0.04168660674736124	-0.0001398304607641151	0.3239408069055245	-3.435566440989439	-35.09455905507943	-5.520979529504084	0.5582404916668231	13.39769539306567	-784.4936941086182	52.26011920176494	1.506037417361413	0.2535413258340719	1.396409428788436	-5.033117801009385	0.06808707834685986	-0.6721506381841535	0.4977291381040437	-4.340436862910588	-4.340436862908736	0.4364230658360555	-0.004225391014145601	-0.9723096140807772	-0.189197711476833	3.16626847041922e-09	2.142688094246276e-09	4.971351788489782e-08	4.437589042175861e-08	1.665387068170667e-09	-2.068841368267099e-08	3.980781513957557e-08
1.08	-0.3682344886863574	-0.03377664284812663	0.7149999901170908	1.402323014082881	-0.2309742833211436	-0.06620876146962529	-0.436018250849049	1.146065040937956	1.146065040938624	-0.02718471640706033	0.1745209875055105	0.3001856697965403	0.06521882443894217	0.1238714275407952	0.01985996882477553	0.1258439157911514	-0.4399131400427609	0.006868572633880266	-0.06391950271295785	0.01676615683225285	-0.3923440522397451	-0.3923440522397174	0.03484254399318847	-0.0001361892227771462	-0.0904056397683063	-0.01690665198729504	-0.3249789420450571	0.01623362211209161	0.01245654744678712	-0.3941767843699505	0.04181670775451944	-0.0001735032136362496	0.3243531301089926	-3.593650714899718	-35.05348844471899	-5.504378860417675	0.5281417434524674	13.12235363029009	-784.6782802045016	52.25220522652456	1.502279033222065	0.2692350665114688	1.391449190908347	-5.041791897647222	0.06507340399641943	-0.6805574690355513	0.5745563571730108	-4.343903861034061	-4.343903861033836	0.4382579647111914	0.005453945554899229	-0.9639665711434762	-0.1902210883848426	3.750378836965369e-09	3.120480961674943e-09	5.299119397492764e-08	5.063470910019736e-08	8.104849113680909e-10	-2.2344012265151e-08	4.335245815667912e-08
